<svg xmlns="http://www.w3.org/2000/svg" xmlns:xlink="http://www.w3.org/1999/xlink" width="1940" zoomAndPan="magnify" viewBox="0 0 1455 449.999984" height="600" preserveAspectRatio="xMidYMid meet" version="1.0"><defs><g/><clipPath id="c867d1bf80"><rect x="0" width="1396" y="0" height="450"/></clipPath></defs><g transform="matrix(1, 0, 0, 1, 30, 0)"><g clip-path="url(#c867d1bf80)"><g fill="#000000" fill-opacity="1"><g transform="translate(0.386603, 368.735447)"><g><path d="M 255.46875 0 L 200.109375 0 L 180.078125 -61.359375 L 78.109375 -61.359375 L 58.078125 0 L 4 0 L 95.953125 -266.203125 L 163.515625 -266.203125 Z M 126.546875 -210.671875 L 92.3125 -105.609375 L 165.515625 -105.609375 L 131.09375 -210.671875 Z M 126.546875 -210.671875 "/></g></g><g transform="translate(259.855796, 368.735447)"><g><path d="M 28.953125 0 L 28.953125 -200.84375 L 77.9375 -200.84375 L 77.9375 -170.96875 L 81.75 -170.25 C 86.601562 -181.414062 92.972656 -189.609375 100.859375 -194.828125 C 108.753906 -200.046875 118.347656 -202.65625 129.640625 -202.65625 C 141.054688 -202.65625 149.738281 -200.710938 155.6875 -196.828125 L 147.125 -153.3125 L 143.296875 -152.578125 C 140.023438 -153.921875 136.867188 -154.894531 133.828125 -155.5 C 130.796875 -156.101562 127.09375 -156.40625 122.71875 -156.40625 C 108.644531 -156.40625 97.90625 -151.457031 90.5 -141.5625 C 83.09375 -131.675781 79.390625 -115.804688 79.390625 -93.953125 L 79.390625 0 Z M 28.953125 0 "/></g></g><g transform="translate(417.358149, 368.735447)"><g><path d="M 91.953125 3.828125 C 69.367188 3.828125 52.707031 -2.332031 41.96875 -14.65625 C 31.226562 -26.976562 25.859375 -44.671875 25.859375 -67.734375 L 25.859375 -200.84375 L 76.296875 -200.84375 L 76.296875 -74.109375 C 76.296875 -61.847656 78.9375 -52.894531 84.21875 -47.25 C 89.5 -41.601562 97.660156 -38.78125 108.703125 -38.78125 C 122.660156 -38.78125 133.523438 -43.363281 141.296875 -52.53125 C 149.066406 -61.695312 152.953125 -76.113281 152.953125 -95.78125 L 152.953125 -200.84375 L 203.390625 -200.84375 L 203.390625 0 L 154.953125 0 L 154.953125 -29.5 L 151.125 -30.40625 C 144.695312 -18.875 136.835938 -10.285156 127.546875 -4.640625 C 118.265625 1.003906 106.398438 3.828125 91.953125 3.828125 Z M 91.953125 3.828125 "/></g></g><g transform="translate(649.696881, 368.735447)"><g><path d="M 93.953125 3.828125 C 80.234375 3.828125 67.664062 2.21875 56.25 -1 C 44.84375 -4.21875 35.101562 -8.648438 27.03125 -14.296875 C 18.96875 -19.941406 12.992188 -26.40625 9.109375 -33.6875 L 37.140625 -63.90625 L 40.96875 -63.90625 C 47.644531 -54.925781 55.535156 -48.191406 64.640625 -43.703125 C 73.742188 -39.210938 83.632812 -36.96875 94.3125 -36.96875 C 104.144531 -36.96875 111.550781 -38.726562 116.53125 -42.25 C 121.507812 -45.769531 124 -50.804688 124 -57.359375 C 124 -62.453125 122.207031 -66.726562 118.625 -70.1875 C 115.039062 -73.644531 109.242188 -76.347656 101.234375 -78.296875 L 74.65625 -84.671875 C 54.75 -89.398438 40.210938 -96.648438 31.046875 -106.421875 C 21.878906 -116.191406 17.296875 -128.601562 17.296875 -143.65625 C 17.296875 -156.164062 20.484375 -167.03125 26.859375 -176.25 C 33.234375 -185.476562 42.210938 -192.519531 53.796875 -197.375 C 65.390625 -202.226562 78.894531 -204.65625 94.3125 -204.65625 C 112.40625 -204.65625 127.398438 -202.046875 139.296875 -196.828125 C 151.191406 -191.609375 160.476562 -184.628906 167.15625 -175.890625 L 140.203125 -146.765625 L 136.5625 -146.765625 C 130.976562 -153.078125 124.695312 -157.6875 117.71875 -160.59375 C 110.738281 -163.507812 102.9375 -164.96875 94.3125 -164.96875 C 74.40625 -164.96875 64.453125 -158.773438 64.453125 -146.390625 C 64.453125 -141.171875 66.300781 -136.921875 70 -133.640625 C 73.707031 -130.367188 80.234375 -127.703125 89.578125 -125.640625 L 114.34375 -120.171875 C 134.738281 -115.804688 149.640625 -108.796875 159.046875 -99.140625 C 168.453125 -89.492188 173.15625 -76.535156 173.15625 -60.265625 C 173.15625 -47.523438 170 -36.296875 163.6875 -26.578125 C 157.375 -16.867188 148.269531 -9.375 136.375 -4.09375 C 124.476562 1.1875 110.335938 3.828125 93.953125 3.828125 Z M 93.953125 3.828125 "/></g></g><g transform="translate(834.875947, 368.735447)"><g><path d="M 28.953125 0 L 28.953125 -281.5 L 79.390625 -281.5 L 79.390625 -174.625 L 83.21875 -173.890625 C 89.894531 -183.722656 98.085938 -191.304688 107.796875 -196.640625 C 117.503906 -201.984375 129.21875 -204.65625 142.9375 -204.65625 C 187.238281 -204.65625 209.390625 -179.53125 209.390625 -129.28125 L 209.390625 0 L 158.953125 0 L 158.953125 -122.90625 C 158.953125 -136.625 156.222656 -146.578125 150.765625 -152.765625 C 145.304688 -158.953125 136.804688 -162.046875 125.265625 -162.046875 C 111.191406 -162.046875 100.023438 -157.34375 91.765625 -147.9375 C 83.515625 -138.53125 79.390625 -123.875 79.390625 -103.96875 L 79.390625 0 Z M 28.953125 0 "/></g></g><g transform="translate(1070.128018, 368.735447)"><g><path d="M 78.296875 3.828125 C 65.429688 3.828125 54.265625 1.460938 44.796875 -3.265625 C 35.328125 -8.003906 28.039062 -14.957031 22.9375 -24.125 C 17.84375 -33.289062 15.296875 -44.304688 15.296875 -57.171875 C 15.296875 -69.066406 17.84375 -79.050781 22.9375 -87.125 C 28.039062 -95.195312 35.929688 -101.8125 46.609375 -106.96875 C 57.296875 -112.132812 71.257812 -116.113281 88.5 -118.90625 C 100.507812 -120.84375 109.640625 -122.960938 115.890625 -125.265625 C 122.140625 -127.578125 126.359375 -130.1875 128.546875 -133.09375 C 130.734375 -136.007812 131.828125 -139.710938 131.828125 -144.203125 C 131.828125 -150.640625 129.582031 -155.554688 125.09375 -158.953125 C 120.601562 -162.359375 113.132812 -164.0625 102.6875 -164.0625 C 91.519531 -164.0625 80.898438 -161.570312 70.828125 -156.59375 C 60.753906 -151.613281 52.015625 -145.054688 44.609375 -136.921875 L 40.96875 -136.921875 L 19.84375 -168.796875 C 30.039062 -180.078125 42.484375 -188.875 57.171875 -195.1875 C 71.859375 -201.5 87.882812 -204.65625 105.25 -204.65625 C 131.832031 -204.65625 151.070312 -199.007812 162.96875 -187.71875 C 174.863281 -176.4375 180.8125 -160.414062 180.8125 -139.65625 L 180.8125 -52.4375 C 180.8125 -43.457031 184.753906 -38.96875 192.640625 -38.96875 C 195.679688 -38.96875 198.65625 -39.515625 201.5625 -40.609375 L 204.109375 -39.875 L 207.75 -4.734375 C 204.957031 -2.910156 201.070312 -1.421875 196.09375 -0.265625 C 191.125 0.878906 185.664062 1.453125 179.71875 1.453125 C 167.695312 1.453125 158.316406 -0.847656 151.578125 -5.453125 C 144.847656 -10.066406 140.023438 -17.289062 137.109375 -27.125 L 133.28125 -27.5 C 123.445312 -6.613281 105.117188 3.828125 78.296875 3.828125 Z M 94.3125 -33.875 C 105.96875 -33.875 115.285156 -37.785156 122.265625 -45.609375 C 129.242188 -53.441406 132.734375 -64.335938 132.734375 -78.296875 L 132.734375 -98.6875 L 129.28125 -99.421875 C 126.25 -96.992188 122.273438 -94.957031 117.359375 -93.3125 C 112.441406 -91.675781 105.367188 -90.070312 96.140625 -88.5 C 85.210938 -86.675781 77.351562 -83.546875 72.5625 -79.109375 C 67.769531 -74.679688 65.375 -68.398438 65.375 -60.265625 C 65.375 -51.648438 67.921875 -45.097656 73.015625 -40.609375 C 78.109375 -36.117188 85.207031 -33.875 94.3125 -33.875 Z M 94.3125 -33.875 "/></g></g></g><g fill="#000000" fill-opacity="1"><g transform="translate(1291.723821, 368.735447)"><g><path d="M 51.34375 1.640625 C 44.914062 1.640625 39.242188 0.335938 34.328125 -2.265625 C 29.410156 -4.878906 25.644531 -8.492188 23.03125 -13.109375 C 20.425781 -17.722656 19.125 -22.941406 19.125 -28.765625 C 19.125 -34.597656 20.425781 -39.816406 23.03125 -44.421875 C 25.644531 -49.035156 29.410156 -52.675781 34.328125 -55.34375 C 39.242188 -58.019531 44.914062 -59.359375 51.34375 -59.359375 C 57.90625 -59.359375 63.640625 -58.050781 68.546875 -55.4375 C 73.460938 -52.832031 77.226562 -49.222656 79.84375 -44.609375 C 82.457031 -39.992188 83.765625 -34.773438 83.765625 -28.953125 C 83.765625 -20.085938 80.816406 -12.769531 74.921875 -7 C 69.035156 -1.238281 61.175781 1.640625 51.34375 1.640625 Z M 51.34375 1.640625 "/></g></g></g></g></g></svg>